<?xml version="1.0" encoding="UTF-8"?>
<svg xmlns="http://www.w3.org/2000/svg" viewBox="0 0 501.9 359.1">
  <defs>
    <style>.cls-1{fill:#ff974a;}</style>
  </defs>
  <title>Fichier 26</title>
  <g id="Calque_2" data-name="Calque 2">
    <g id="Calque_1-2" data-name="Calque 1">
      <path class="cls-1" d="M429.05,165.81a41.7,41.7,0,0,1,.64-7.29H368a10.83,10.83,0,0,0-10.8,10.8v179A10.83,10.83,0,0,0,368,359.1H456a10.83,10.83,0,0,0,10.8-10.8V207.85A42.28,42.28,0,0,1,429.05,165.81Z"></path>
      <path class="cls-1" d="M59.87,171.41c-22.94,0-83,119.42-50.36,134.11,20,9,79.78,8.48,104.21,0,34.13-11.84-31.41-134.11-53.85-134.11"></path>
      <rect x="243.99" y="233.52" width="17.33" height="3.72"></rect>
      <rect x="250.8" y="222.41" width="3.72" height="25.93"></rect>
      <circle class="cls-1" cx="182.96" cy="103.28" r="55.67"></circle>
      <path class="cls-1" d="M344,162.32a30.26,30.26,0,0,0,.3-4.28c0-16.46-13-29.8-29.08-29.8s-29.07,13.34-29.07,29.8a32.47,32.47,0,0,0,.28,4.21c-.09.05.1.05,0,.1.29,1,.3,2.07.61,3a30.32,30.32,0,0,0,2.08,5.8c3.78,9.18,9.41,15.42,20.77,25.52a8,8,0,0,0,10.74-.05c10.08-9.15,16.57-17.06,20.24-24.58a29.34,29.34,0,0,0,1.53-3.43,31.4,31.4,0,0,0,1.6-6.14C343.9,162.49,344.1,162.34,344,162.32Z"></path>
      <path d="M248.44,167.61a6,6,0,1,1,6-6A6,6,0,0,1,248.44,167.61Zm0-8.2a2.25,2.25,0,1,0,2.25,2.25A2.25,2.25,0,0,0,248.44,159.41Z"></path>
      <path d="M273.24,53.32a6,6,0,1,1,6-6A6,6,0,0,1,273.24,53.32Zm0-8.2a2.24,2.24,0,1,0,2.24,2.24A2.24,2.24,0,0,0,273.24,45.12Z"></path>
      <path d="M416.1,104.32H359.41a35.29,35.29,0,0,1-35.26-35.25V52.71a35.29,35.29,0,0,1,35.26-35.25H416.1a35.29,35.29,0,0,1,35.25,35.25V69.07A35.29,35.29,0,0,1,416.1,104.32ZM359.41,21.18a31.57,31.57,0,0,0-31.54,31.53V69.07a31.57,31.57,0,0,0,31.54,31.53H416.1a31.57,31.57,0,0,0,31.54-31.53V52.71A31.57,31.57,0,0,0,416.1,21.18Z"></path>
      <path d="M363.93,79.07c-8.52,0-15.45-7.22-15.45-16.08,0-.24,0-.47,0-.71l-.18,0,.22-1.11-.14-.33.31-.58a16,16,0,0,1,.79-3,16.57,16.57,0,0,1,.79-1.81c1.65-3.43,5.16-8.9,12.43-15.19l1.23-1.06,1.22,1.07c7.35,6.51,10.55,10.48,12.67,15.71a16.19,16.19,0,0,1,1.07,3,7.08,7.08,0,0,1,.17.79l.2.12v.84l.32,1.14-.23.12q0,.49,0,1C379.38,71.85,372.45,79.07,363.93,79.07ZM352.28,61.49a12.45,12.45,0,0,0-.09,1.5c0,6.81,5.27,12.36,11.74,12.36S375.66,69.8,375.66,63q0-.45,0-.9l-.12-.07v-.93c0-.2-.07-.4-.1-.59a2.43,2.43,0,0,0-.08-.47l0-.11a12.87,12.87,0,0,0-.85-2.42l0-.09c-1.76-4.36-4.47-7.82-10.49-13.27-6,5.41-8.89,10-10.31,13a10.92,10.92,0,0,0-.64,1.47,11.27,11.27,0,0,0-.56,2.07l.15.37Z"></path>
      <rect x="362.07" y="51.07" width="3.72" height="31.37"></rect>
      <path d="M364.77,70.21l-2.52-2.74,6.7-6.13,2.51,2.74Zm-2.52-6.13-5.85-5.37L358.91,56l5.86,5.37Z"></path>
      <path d="M413.77,79.07c-8.52,0-15.45-7.22-15.45-16.08,0-.24,0-.47,0-.71l-.18,0,.21-1.11-.14-.33.32-.59a16,16,0,0,1,.78-3,16.69,16.69,0,0,1,.8-1.81c1.64-3.44,5.16-8.9,12.43-15.19l1.23-1.06L415,40.26c7.35,6.51,10.56,10.48,12.68,15.71a15.91,15.91,0,0,1,1.06,3,5.38,5.38,0,0,1,.17.79l.2.12v.83l.31,1.15-.22.12c0,.33,0,.66,0,1C429.22,71.85,422.29,79.07,413.77,79.07ZM402.12,61.49A14.91,14.91,0,0,0,402,63c0,6.81,5.26,12.36,11.73,12.36S425.51,69.8,425.51,63q0-.45,0-.9l-.13-.08v-.92c0-.2-.07-.4-.1-.6a2.34,2.34,0,0,0-.09-.46l0-.11a12,12,0,0,0-.85-2.42l0-.09c-1.76-4.36-4.47-7.82-10.48-13.27-6,5.41-8.89,10-10.31,13a12.47,12.47,0,0,0-.65,1.47,11.27,11.27,0,0,0-.56,2.07l.16.37Z"></path>
      <rect x="411.91" y="51.07" width="3.72" height="31.37"></rect>
      <path d="M414.61,70.21l-2.51-2.74,6.69-6.13,2.51,2.74Zm-2.51-6.13-5.86-5.37L408.75,56l5.86,5.37Z"></path>
      <rect x="151.8" y="169.16" width="3.72" height="87.73"></rect>
      <rect x="175.14" y="158.62" width="3.72" height="146.55"></rect>
      <polygon points="77.09 198.53 73.37 198.53 73.37 98.97 127.8 98.97 127.8 102.69 77.09 102.69 77.09 198.53"></polygon>
      <polygon points="360.94 318.58 357.23 318.58 357.23 221.77 279.17 221.77 279.17 300.62 275.45 300.62 275.45 218.05 360.94 218.05 360.94 318.58"></polygon>
      <rect x="177.31" y="336.46" width="85.68" height="3.72"></rect>
      <rect x="259.39" y="336.77" width="25.55" height="3.72"></rect>
      <rect x="291.61" y="346.06" width="150.31" height="3.72"></rect>
      <path d="M61.74,295.48H58a11.27,11.27,0,0,0-11.27-11.26V280.5A15,15,0,0,1,61.74,295.48Z"></path>
      <path d="M61.74,279.15H58A23.77,23.77,0,0,0,34.27,255.4H31.7v-3.72h2.57A27.5,27.5,0,0,1,61.74,279.15Z"></path>
      <path d="M61.74,285.37H58a20.54,20.54,0,0,1,20.52-20.52h3v3.72h-3A16.81,16.81,0,0,0,61.74,285.37Z"></path>
      <path d="M223.43,312.69h-3.72a20.46,20.46,0,0,1,20.44-20.44h2.67V296h-2.67A16.75,16.75,0,0,0,223.43,312.69Z"></path>
      <path d="M223.43,312.69h-3.72a28.84,28.84,0,0,0-28.81-28.81h-13v-3.71h13a32.56,32.56,0,0,1,28.81,17.43V268.08h3.72Z"></path>
      <path d="M223.46,291.32h-3.72a32.56,32.56,0,0,1,32.53-32.53v3.72A28.84,28.84,0,0,0,223.46,291.32Z"></path>
      <rect x="219.7" y="312.67" width="3.72" height="24.12"></rect>
      <path d="M392.9,316.17h-3.72a20.47,20.47,0,0,1,20.45-20.44h2.66v3.72h-2.66A16.74,16.74,0,0,0,392.9,316.17Z"></path>
      <path d="M392.9,316.17h-3.72a28.83,28.83,0,0,0-28.8-28.8h-3v-3.72h3a32.54,32.54,0,0,1,28.8,17.44v-7.52h3.72Z"></path>
      <path d="M392.94,294.8h-3.72a32.56,32.56,0,0,1,32.52-32.52V266A28.83,28.83,0,0,0,392.94,294.8Z"></path>
      <rect x="389.18" y="316.16" width="3.72" height="31.12"></rect>
      <rect x="58.02" y="227.7" width="3.72" height="120.41"></rect>
      <path d="M169.83,339.31H158.28v-15h11.55ZM162,335.59h4.12V328H162Z"></path>
      <path d="M198.17,339.31H186.62v-15h11.55Zm-7.84-3.72h4.12V328h-4.12Z"></path>
      <path d="M204,328H153v-24.7h51Zm-47.26-3.72h43.54V307H156.69Z"></path>
      <polygon points="210.63 328.25 145.83 328.25 145.83 315.09 149.55 315.09 149.55 324.53 206.92 324.53 206.92 315.09 210.63 315.09 210.63 328.25"></polygon>
      <rect x="126.06" y="181.86" width="70.25" height="3.72"></rect>
      <rect x="155.11" y="309.88" width="46.16" height="3.72"></rect>
      <rect x="155.11" y="316.63" width="46.16" height="3.72"></rect>
      <path d="M316.28,268.78H291.82V244.32h24.46Zm-20.74-3.72h17V248h-17Z"></path>
      <rect x="90.45" y="130.86" width="31.81" height="3.72"></rect>
      <rect x="379.28" y="200.86" width="50.95" height="3.72"></rect>
      <rect x="90.15" y="75.13" width="22.57" height="3.72"></rect>
      <rect x="383.67" y="228.94" width="55.27" height="3.72"></rect>
      <rect x="211.93" y="208.01" width="24.95" height="3.72"></rect>
      <rect x="222.55" y="191.19" width="3.72" height="37.34"></rect>
      <rect x="194.84" y="234.79" width="12.95" height="3.72"></rect>
      <rect x="199.46" y="226.96" width="3.72" height="19.38"></rect>
      <rect x="302.13" y="246.71" width="3.72" height="21.06"></rect>
      <path d="M63.55,77.83a6,6,0,1,1,6-6A6,6,0,0,1,63.55,77.83Zm0-8.2a2.24,2.24,0,1,0,2.25,2.24A2.24,2.24,0,0,0,63.55,69.63Z"></path>
      <rect x="25.77" y="346.05" width="117.45" height="3.72"></rect>
      <polygon points="418.62 298.11 418.57 177.37 400.35 177.37 400.35 242.34 396.63 242.34 396.63 173.65 422.28 173.65 422.34 298.11 418.62 298.11"></polygon>
      <path d="M261.86,324.27h-3.72a13.06,13.06,0,0,1,13.05-13V315A9.33,9.33,0,0,0,261.86,324.27Z"></path>
      <path d="M261.86,324.27h-3.72a16.61,16.61,0,0,0-16.59-16.59V304a20.32,20.32,0,0,1,16.59,8.61V292.3h3.72Z"></path>
      <path d="M261.88,311.41h-3.72a20.34,20.34,0,0,1,20.32-20.31v3.71A16.62,16.62,0,0,0,261.88,311.41Z"></path>
      <rect x="258.14" y="324.26" width="3.72" height="14.52"></rect>
      <path d="M92.1,51.72A25.86,25.86,0,1,1,118,25.86,25.89,25.89,0,0,1,92.1,51.72Zm0-48a22.14,22.14,0,1,0,22.14,22.14A22.16,22.16,0,0,0,92.1,3.72Z"></path>
      <rect x="128.12" y="212.86" width="38.51" height="3.72"></rect>
      <rect x="366.73" y="131.65" width="31.81" height="3.72"></rect>
      <path d="M84.39,37V33.72l7.67-7.9c1.72-1.8,2.57-3.3,2.57-4.5a2.82,2.82,0,0,0-.82-2.12,2.87,2.87,0,0,0-2.1-.8A4,4,0,0,0,88,21l-3.72-2.18a7.86,7.86,0,0,1,3-3.54,8.21,8.21,0,0,1,4.37-1.22A7.64,7.64,0,0,1,96.88,16a6.48,6.48,0,0,1,2.19,5.15c0,2.33-1.24,4.73-3.69,7.18L91,32.76h8.45V37Z"></path>
      <polygon points="344.58 346.65 340.87 346.65 340.87 293.6 318.63 293.6 318.63 328.58 314.91 328.58 314.91 289.88 344.58 289.88 344.58 346.65"></polygon>
      <path d="M471.22,154.63h4.09v23.5h-4.7v-18.6l-4.49,1.25-1.16-4Z"></path>
      <path d="M471.33,191.67a25.86,25.86,0,1,1,25.86-25.86A25.89,25.89,0,0,1,471.33,191.67Zm0-48a22.14,22.14,0,1,0,22.14,22.14A22.16,22.16,0,0,0,471.33,143.67Z"></path>
      <polygon points="475.9 226.27 465.05 190.19 468.61 189.12 477.83 219.79 485.95 212.97 496.73 214.13 490.17 192.33 493.73 191.25 501.9 218.43 487.13 216.84 475.9 226.27"></polygon>
      <polygon points="467.09 226.24 455.9 216.84 441.13 218.43 451.88 182.69 455.43 183.76 446.3 214.13 457.08 212.97 465.24 219.83 470 204.97 473.55 206.1 467.09 226.24"></polygon>
      <rect x="455.56" y="200.79" width="9.82" height="3.72" transform="matrix(0.26, -0.97, 0.97, 0.26, 146.72, 595.92)"></rect>
      <rect x="479.68" y="188.59" width="3.72" height="19.18" transform="matrix(0.96, -0.28, 0.28, 0.96, -36.17, 142.16)"></rect>
      <path d="M183.8,121.73c-8.52,0-15.45-7.22-15.45-16.08,0-.24,0-.48,0-.72l-.17-.05.21-1.09-.14-.34.32-.58a16,16,0,0,1,.78-3,17.74,17.74,0,0,1,.79-1.81c1.65-3.43,5.16-8.9,12.44-15.19l1.23-1.06L185,82.92c7.35,6.51,10.56,10.48,12.68,15.71a16.15,16.15,0,0,1,1.06,3,7.08,7.08,0,0,1,.17.79l.21.12v.84l.3,1.12-.22.12c0,.34,0,.67,0,1C199.25,114.51,192.32,121.73,183.8,121.73Zm-11.65-17.58a12.45,12.45,0,0,0-.08,1.5c0,6.81,5.26,12.36,11.73,12.36s11.74-5.55,11.74-12.36q0-.45,0-.9l-.12-.07v-.93c0-.2-.07-.4-.1-.59a3.55,3.55,0,0,0-.09-.47l0-.11a13.12,13.12,0,0,0-.85-2.42l0-.09c-1.76-4.36-4.47-7.82-10.49-13.27-6,5.41-8.89,10-10.31,13a14.24,14.24,0,0,0-.64,1.47,11.15,11.15,0,0,0-.56,2.08l.15.37Z"></path>
      <rect x="181.94" y="93.73" width="3.72" height="31.37"></rect>
      <path d="M184.64,112.87l-2.51-2.74,6.69-6.13,2.51,2.74Zm-2.51-6.13-5.86-5.37,2.51-2.74,5.86,5.37Z"></path>
      <path d="M183.66,145.26a41.86,41.86,0,1,1,41.85-41.86A41.91,41.91,0,0,1,183.66,145.26Zm0-80a38.14,38.14,0,1,0,38.13,38.13A38.18,38.18,0,0,0,183.66,65.27Z"></path>
      <path d="M315.26,187.83l-1.34-1.15c-9.75-8.38-14-13.48-16.8-20.2a20.61,20.61,0,0,1-1.41-3.87,9.75,9.75,0,0,1-.24-1.14l-.24-.13v-1l-.37-1.3.26-.13c0-.48-.05-1-.05-1.45a20.2,20.2,0,1,1,40.4,0c0,.39,0,.78,0,1.17l.2,0-.25,1.23.16.38-.37.71a19.28,19.28,0,0,1-1,3.78,19.69,19.69,0,0,1-1,2.32c-2.18,4.42-6.84,11.45-16.49,19.55ZM299.43,160c.06.28.1.54.14.78a5.52,5.52,0,0,0,.12.65l0,.12a16.33,16.33,0,0,0,1.15,3.18l.05.11c2.39,5.76,6.09,10.31,14.36,17.54,8.18-7.14,12.18-13.21,14.11-17.11a16.24,16.24,0,0,0,.87-1.93,14.35,14.35,0,0,0,.78-2.83l-.18-.42.33-.55a17.11,17.11,0,0,0,.12-2,16,16,0,1,0-32.09,0c0,.44,0,.89.06,1.34l.15.08Zm32-.86,0,0Z"></path>
      <path d="M315.28,165.59a8.36,8.36,0,1,1,8.36-8.36A8.38,8.38,0,0,1,315.28,165.59Zm0-12.57a4.21,4.21,0,1,0,4.21,4.21A4.22,4.22,0,0,0,315.28,153Z"></path>
      <rect x="262.54" y="95.43" width="45.34" height="3.72"></rect>
    </g>
  </g>
</svg>
