<?xml version="1.0" encoding="UTF-8"?>
<svg xmlns="http://www.w3.org/2000/svg" xmlns:xlink="http://www.w3.org/1999/xlink" viewBox="0 0 487.08 435.35">
  <defs>
    <style>.cls-1{fill:none;}.cls-2{fill:#ffb850;}.cls-3{clip-path:url(#clip-path);}</style>
    <clipPath id="clip-path">
      <rect class="cls-1" x="173.5" y="92.42" width="49.4" height="49.4" rx="6.45"></rect>
    </clipPath>
  </defs>
  <title>Fichier 27</title>
  <g id="Calque_2" data-name="Calque 2">
    <g id="Calque_1-2" data-name="Calque 1">
      <rect class="cls-2" x="82.96" y="172.4" width="114.41" height="262.95" rx="12.63"></rect>
      <path d="M167.15,337.38H142.71V226.52h24.44Zm-20.72-3.71h17V230.24h-17Z"></path>
      <polygon points="303.76 354.14 300.04 354.14 300.04 271.91 334.34 271.91 334.34 230.88 368.01 230.88 368.01 234.6 338.06 234.6 338.06 275.63 303.76 275.63 303.76 354.14"></polygon>
      <rect x="180.69" y="422.62" width="90.48" height="3.72"></rect>
      <rect x="283.84" y="422.93" width="198.2" height="3.72"></rect>
      <path d="M85.49,427.1H81.77V326.51a39.68,39.68,0,0,0-39.64-39.64H3.72V427.1H0v-144H42.13a43.41,43.41,0,0,1,43.36,43.36Z"></path>
      <path d="M345.23,398.47h-3.71A20.46,20.46,0,0,1,362,378h2.67v3.71H362A16.76,16.76,0,0,0,345.23,398.47Z"></path>
      <path d="M345.23,398.47h-3.71a28.85,28.85,0,0,0-28.81-28.81V366a32.56,32.56,0,0,1,28.81,17.43V377.1h3.71Z"></path>
      <path d="M345.27,377.1h-3.72a32.56,32.56,0,0,1,32.53-32.53v3.72A28.84,28.84,0,0,0,345.27,377.1Z"></path>
      <rect x="341.51" y="398.45" width="3.72" height="24.12"></rect>
      <path d="M305.78,410.25h-3.72a13.06,13.06,0,0,1,13.05-13v3.71A9.34,9.34,0,0,0,305.78,410.25Z"></path>
      <path d="M305.78,410.25h-3.72a16.62,16.62,0,0,0-16.6-16.6v-3.71a20.29,20.29,0,0,1,16.6,8.61V368.27h3.72Z"></path>
      <path d="M305.8,397.39h-3.72a20.35,20.35,0,0,1,20.32-20.32v3.72A16.62,16.62,0,0,0,305.8,397.39Z"></path>
      <rect x="302.06" y="410.24" width="3.72" height="14.52"></rect>
      <rect x="151.9" y="245.09" width="29.14" height="3.72"></rect>
      <rect x="129.45" y="264.79" width="37.1" height="3.72"></rect>
      <rect x="144.11" y="284.02" width="22.44" height="3.72"></rect>
      <rect x="129.45" y="304.07" width="64.58" height="3.72"></rect>
      <path d="M74.24,335.63H34.74V296.12H36.6a37.68,37.68,0,0,1,37.64,37.65Zm-35.78-3.72h32a34,34,0,0,0-32-32Z"></path>
      <rect x="243.64" y="305.32" width="46.08" height="3.72"></rect>
      <rect x="17.25" y="189.12" width="51.36" height="3.72"></rect>
      <rect x="306.9" y="189.12" width="41.86" height="3.72"></rect>
      <rect x="243.71" y="189.12" width="17.98" height="3.72"></rect>
      <rect x="71.88" y="217.01" width="63.79" height="3.72"></rect>
      <rect x="245.78" y="217.01" width="58.6" height="3.72"></rect>
      <rect x="255.83" y="245.09" width="29.53" height="3.72"></rect>
      <rect x="46.68" y="300.22" width="3.72" height="32.51"></rect>
      <rect x="58.13" y="307.77" width="3.72" height="24.27"></rect>
      <path d="M449.5,231.92a6,6,0,1,1,6-6A6,6,0,0,1,449.5,231.92Zm0-8.2a2.24,2.24,0,1,0,2.24,2.24A2.24,2.24,0,0,0,449.5,223.72Z"></path>
      <path d="M299.2,170.34a6,6,0,1,1,6-6A6,6,0,0,1,299.2,170.34Zm0-8.2a2.24,2.24,0,1,0,2.24,2.24A2.24,2.24,0,0,0,299.2,162.14Z"></path>
      <path d="M76.94,161.52a6,6,0,1,1,6-6A6,6,0,0,1,76.94,161.52Zm0-8.2a2.25,2.25,0,1,0,2.24,2.24A2.25,2.25,0,0,0,76.94,153.32Z"></path>
      <path d="M39.14,252.42a6,6,0,1,1,6-6A6,6,0,0,1,39.14,252.42Zm0-8.2a2.24,2.24,0,1,0,2.24,2.24A2.24,2.24,0,0,0,39.14,244.22Z"></path>
      <path d="M140.79,143.68l-1.34-1.15c-9.75-8.38-14-13.49-16.81-20.21a20.77,20.77,0,0,1-1.4-3.87,7.66,7.66,0,0,1-.24-1.13l-.24-.13v-1L120.4,115l.26-.13c0-.49,0-1,0-1.46a20.2,20.2,0,1,1,40.39,0c0,.38,0,.78,0,1.17l.19,0-.24,1.23.16.39-.38.71a19.37,19.37,0,0,1-1,3.78,19.69,19.69,0,0,1-1,2.32c-2.19,4.42-6.84,11.45-16.49,19.55ZM125,115.83c.06.29.1.55.14.79a3.67,3.67,0,0,0,.12.64l0,.13a17,17,0,0,0,1.16,3.18l0,.11c2.39,5.76,6.09,10.3,14.35,17.53,8.19-7.13,12.19-13.2,14.12-17.1a18,18,0,0,0,.87-1.93,14.73,14.73,0,0,0,.78-2.83l-.18-.43.33-.54a17.11,17.11,0,0,0,.12-2,16,16,0,1,0-32.09,0c0,.44,0,.89,0,1.33l.15.08Zm32-.85,0,0Z"></path>
      <path d="M140.8,121.44a8.37,8.37,0,1,1,8.37-8.36A8.37,8.37,0,0,1,140.8,121.44Zm0-12.57a4.21,4.21,0,1,0,4.21,4.21A4.21,4.21,0,0,0,140.8,108.87Z"></path>
      <path class="cls-2" d="M382.93,34.08a30.16,30.16,0,0,0,.3-4.28c0-16.46-13-29.8-29.08-29.8s-29.07,13.34-29.07,29.8a30.68,30.68,0,0,0,.29,4.21c-.1.05.09.05,0,.1.29,1,.29,2.07.6,3a29.84,29.84,0,0,0,2.08,5.8c3.65,8.84,9,15,19.55,24.43a9.81,9.81,0,0,0,13.2-.1c9.38-8.67,15.48-16.23,19-23.43a32.06,32.06,0,0,0,1.52-3.44,31.4,31.4,0,0,0,1.6-6.14C382.83,34.25,383,34.11,382.93,34.08Z"></path>
      <path d="M354.19,59.59l-1.33-1.15c-9.76-8.37-14-13.48-16.81-20.2a20.61,20.61,0,0,1-1.41-3.87,8.1,8.1,0,0,1-.23-1.13l-.25-.14v-1l-.37-1.3.26-.13c0-.48-.05-1-.05-1.45a20.2,20.2,0,1,1,40.4,0c0,.38,0,.77,0,1.16l.19,0-.25,1.25.16.39-.37.7a20.84,20.84,0,0,1-2.08,6.1c-2.18,4.42-6.84,11.45-16.49,19.55ZM338.36,31.75c.06.28.1.54.14.78a5.15,5.15,0,0,0,.12.65l0,.12a16.09,16.09,0,0,0,1.15,3.18l.05.11c2.4,5.76,6.09,10.31,14.36,17.54C362.4,47,366.4,40.93,368.33,37a14.91,14.91,0,0,0,.87-1.93,14.45,14.45,0,0,0,.78-2.82l-.18-.43.33-.55a16.86,16.86,0,0,0,.12-2,16,16,0,1,0-32.08,0c0,.45,0,.89.05,1.34l.15.08Zm32-.86,0,0Z"></path>
      <path d="M354.21,37.36A8.37,8.37,0,1,1,362.57,29,8.38,8.38,0,0,1,354.21,37.36Zm0-12.58A4.21,4.21,0,1,0,358.42,29,4.22,4.22,0,0,0,354.21,24.78Z"></path>
      <rect x="29.15" y="423.28" width="117.45" height="3.72"></rect>
      <rect x="243.09" y="58.33" width="3.72" height="364.46"></rect>
      <rect x="268.2" y="38.23" width="3.72" height="384.56"></rect>
      <path d="M311.27,104.84H268.2V61.77h21l22.09,19.44Zm-39.35-3.72h35.63V82.89l-19.77-17.4H271.92Z"></path>
      <rect x="382.06" y="130.6" width="3.72" height="133.12"></rect>
      <rect x="320.11" y="115.35" width="35.52" height="3.72" transform="translate(16.11 273.3) rotate(-45.01)"></rect>
      <rect x="336.02" y="99.45" width="3.72" height="35.52" transform="translate(16.08 273.24) rotate(-45)"></rect>
      <rect x="343.56" y="115.35" width="35.52" height="3.72" transform="translate(22.98 289.88) rotate(-45.01)"></rect>
      <rect x="359.46" y="99.45" width="3.72" height="35.52" transform="translate(22.95 289.82) rotate(-45)"></rect>
      <polygon points="456.1 318.42 452.39 318.42 452.39 288.18 437.32 288.18 437.32 267.25 413.88 267.25 413.88 233.88 399.83 233.88 399.83 230.16 417.59 230.16 417.59 263.54 441.04 263.54 441.04 284.47 456.1 284.47 456.1 318.42"></polygon>
      <path d="M487.08,369.39H384.57v-23H487.08Zm-98.79-3.71h95.07V350.14H388.29Z"></path>
      <path d="M487.08,402.88H384.57v-23H487.08Zm-98.79-3.72h95.07V383.63H388.29Z"></path>
      <rect x="406.34" y="400.74" width="3.72" height="25.95"></rect>
      <rect x="406.34" y="368.09" width="3.72" height="13.4"></rect>
      <rect x="421.97" y="401.3" width="3.72" height="25.4"></rect>
      <rect x="421.97" y="368.09" width="3.72" height="13.4"></rect>
      <rect x="445.41" y="401.02" width="3.72" height="25.67"></rect>
      <rect x="445.41" y="368.09" width="3.72" height="14.79"></rect>
      <rect x="461.04" y="400.46" width="3.72" height="26.23"></rect>
      <rect x="461.04" y="368.09" width="3.72" height="14.51"></rect>
      <path d="M415.46,343.83a9.11,9.11,0,1,1,9.11-9.11A9.12,9.12,0,0,1,415.46,343.83Zm0-14.51a5.4,5.4,0,1,0,5.39,5.4A5.4,5.4,0,0,0,415.46,329.32Z"></path>
      <path d="M454.53,343.83a9.11,9.11,0,1,1,9.11-9.11A9.12,9.12,0,0,1,454.53,343.83Zm0-14.51a5.4,5.4,0,1,0,5.39,5.4A5.4,5.4,0,0,0,454.53,329.32Z"></path>
      <rect class="cls-2" x="361.32" y="265.39" width="45.21" height="45.21" rx="10.01" transform="translate(-91.2 355.83) rotate(-45)"></rect>
      <polygon points="418.52 131.21 181.27 131.21 181.27 102.37 394.25 102.37 394.25 106.09 184.99 106.09 184.99 127.49 418.52 127.49 418.52 131.21"></polygon>
      <g class="cls-3">
        <rect class="cls-2" x="173.5" y="92.42" width="49.4" height="49.4" rx="6.45"></rect>
      </g>
    </g>
  </g>
</svg>
