<?xml version="1.0" encoding="UTF-8"?>
<svg xmlns="http://www.w3.org/2000/svg" viewBox="0 0 515.8 370.9">
  <defs>
    <style>.cls-1{fill:#f4f44a;}</style>
  </defs>
  <title>Fichier 28</title>
  <g id="Calque_2" data-name="Calque 2">
    <g id="Calque_1-2" data-name="Calque 1">
      <rect class="cls-1" x="406.14" y="122.28" width="109.65" height="248.62" rx="12.02"></rect>
      <rect class="cls-1" x="69.8" width="93.42" height="54.23" rx="5.18"></rect>
      <rect class="cls-1" x="239.7" y="74.44" width="93.42" height="54.23" rx="5.18"></rect>
      <circle class="cls-1" cx="56.89" cy="251.69" r="56.89"></circle>
      <path class="cls-1" d="M237.55,167.47a31.72,31.72,0,0,0,.29-4.28c0-16.46-13-29.8-29.07-29.8s-29.08,13.34-29.08,29.8a30.79,30.79,0,0,0,.29,4.21c-.1,0,.1,0,0,.1.29,1,.3,2.07.6,3a30.54,30.54,0,0,0,2.09,5.8c3.47,8.44,8.51,14.39,18.12,23.15a11.8,11.8,0,0,0,16.07-.18c8.57-8.1,14.22-15.25,17.56-22.07A30.25,30.25,0,0,0,236,173.8a32.13,32.13,0,0,0,1.6-6.14C237.45,167.64,237.65,167.5,237.55,167.47Z"></path>
      <rect x="138.82" y="173.77" width="3.72" height="74.92"></rect>
      <polygon points="165.88 316.98 162.16 316.98 162.16 174.49 84.1 174.49 84.1 215.56 80.39 215.56 80.39 170.78 165.88 170.78 165.88 316.98"></polygon>
      <rect x="164.33" y="239.85" width="81.77" height="3.72"></rect>
      <rect x="164.33" y="348.57" width="85.67" height="3.72"></rect>
      <rect x="235.82" y="348.57" width="42.7" height="3.72"></rect>
      <polygon points="248.27 350.12 244.55 350.12 244.55 201.13 330.04 201.13 330.04 295.25 326.33 295.25 326.33 204.85 248.27 204.85 248.27 350.12"></polygon>
      <path d="M454.66,361.58H288.48l.3-67.49H454.66Zm-162.45-3.72H450.94V297.81H292.48Z"></path>
      <rect x="277.59" y="357.86" width="151.34" height="3.72"></rect>
      <path d="M58.75,285H55a11.29,11.29,0,0,0-11.27-11.27V270A15,15,0,0,1,58.75,285Z"></path>
      <path d="M58.75,268.62H55a23.78,23.78,0,0,0-23.75-23.75H20.87v-3.71H31.29A27.49,27.49,0,0,1,58.75,268.62Z"></path>
      <path d="M58.75,274.84H55a20.53,20.53,0,0,1,20.51-20.51H98.8V258H75.55A16.82,16.82,0,0,0,58.75,274.84Z"></path>
      <rect x="55.04" y="239.3" width="3.72" height="119.85"></rect>
      <path d="M373.05,249.69h-3.71a11.28,11.28,0,0,0-11.27-11.26v-3.72A15,15,0,0,1,373.05,249.69Z"></path>
      <path d="M373.05,233.35h-3.71a23.78,23.78,0,0,0-23.75-23.74v-3.72A27.49,27.49,0,0,1,373.05,233.35Z"></path>
      <path d="M373.05,239.58h-3.71a20.53,20.53,0,0,1,20.51-20.52h20.39v3.71H389.85A16.83,16.83,0,0,0,373.05,239.58Z"></path>
      <rect x="369.34" y="204.03" width="3.72" height="90.53"></rect>
      <path d="M156.85,351.11H145.3v-15h11.55ZM149,347.39h4.12v-7.57H149Z"></path>
      <path d="M185.19,351.11H173.63v-15h11.56Zm-7.84-3.72h4.12v-7.57h-4.12Z"></path>
      <path d="M191,339.82H140v-24.7h51Zm-47.26-3.72h43.54V318.84H143.71Z"></path>
      <polygon points="197.65 340.05 132.85 340.05 132.85 326.89 136.57 326.89 136.57 336.33 193.93 336.33 193.93 326.89 197.65 326.89 197.65 340.05"></polygon>
      <rect x="113.08" y="193.66" width="63.25" height="3.72"></rect>
      <rect x="142.13" y="321.68" width="46.16" height="3.72"></rect>
      <rect x="142.13" y="328.43" width="46.16" height="3.72"></rect>
      <path d="M200.3,277.58H175.84V253.12H200.3Zm-20.75-3.72h17v-17h-17Z"></path>
      <path d="M297.08,296.91H272.62V282.82h24.46Zm-20.75-3.71h17v-6.66h-17Z"></path>
      <polygon points="280.7 359.72 277.55 359.72 277.55 294.1 292.14 294.1 292.14 330.32 288.99 330.32 288.99 297.25 280.7 297.25 280.7 359.72"></polygon>
      <rect x="183.1" y="220.24" width="44.6" height="3.72"></rect>
      <rect x="65.51" y="142.66" width="63.79" height="3.72"></rect>
      <rect x="167.17" y="96.93" width="46.57" height="3.72"></rect>
      <rect x="324.75" y="308.71" width="52.33" height="3.72"></rect>
      <rect x="324.75" y="321.16" width="52.33" height="3.72"></rect>
      <rect x="360.92" y="310.34" width="3.72" height="13.6"></rect>
      <rect x="339.25" y="323.71" width="3.72" height="12.07"></rect>
      <rect x="399.54" y="334.6" width="52.33" height="3.72"></rect>
      <rect x="414.04" y="337.15" width="3.72" height="12.07"></rect>
      <rect x="20.24" y="170.74" width="35.27" height="3.72"></rect>
      <rect x="253.91" y="177.2" width="12.95" height="3.72"></rect>
      <rect x="258.52" y="169.37" width="3.72" height="19.38"></rect>
      <rect x="281.06" y="162.59" width="23.12" height="3.72"></rect>
      <rect x="290.76" y="147.15" width="3.72" height="34.6"></rect>
      <rect x="186.15" y="255.51" width="3.72" height="21.06"></rect>
      <rect x="289.24" y="218.2" width="3.72" height="47.58"></rect>
      <rect x="274.36" y="218.2" width="3.72" height="34.91"></rect>
      <rect x="302.68" y="225.75" width="3.72" height="24.27"></rect>
      <path d="M112.26,123.38l-1.34-1.15c-9.75-8.38-14-13.49-16.81-20.21a20.08,20.08,0,0,1-1.4-3.87A6.56,6.56,0,0,1,92.47,97l-.24-.13v-1l-.37-1.29.26-.13c0-.49,0-1,0-1.47a20.2,20.2,0,1,1,40.39,0q0,.58,0,1.17l.19,0-.24,1.23.16.39-.38.71a19.37,19.37,0,0,1-1,3.78,20.45,20.45,0,0,1-1,2.32c-2.19,4.42-6.85,11.45-16.49,19.54ZM96.43,95.53c.06.29.1.55.13.79a4.73,4.73,0,0,0,.13.64l0,.13a16.6,16.6,0,0,0,1.16,3.18l0,.11c2.4,5.76,6.1,10.3,14.36,17.53,8.18-7.14,12.19-13.2,14.12-17.1a18,18,0,0,0,.87-1.93,15.49,15.49,0,0,0,.78-2.83l-.18-.43.33-.54a17.15,17.15,0,0,0,.12-2,16,16,0,1,0-32.09,0c0,.45,0,.9,0,1.34l.15.08Zm32-.85v0Z"></path>
      <path d="M112.27,101.14a8.37,8.37,0,1,1,8.37-8.36A8.37,8.37,0,0,1,112.27,101.14Zm0-12.57a4.21,4.21,0,1,0,4.21,4.21A4.22,4.22,0,0,0,112.27,88.57Z"></path>
      <path d="M389.12,105.22a6,6,0,1,1,6-6A6,6,0,0,1,389.12,105.22Zm0-8.2a2.24,2.24,0,1,0,2.24,2.24A2.24,2.24,0,0,0,389.12,97Z"></path>
      <path d="M55.37,121.14a6,6,0,1,1,6-6A6,6,0,0,1,55.37,121.14Zm0-8.2a2.25,2.25,0,1,0,2.24,2.24A2.24,2.24,0,0,0,55.37,112.94Z"></path>
      <path d="M208.81,193l-1.34-1.15c-9.75-8.38-14-13.48-16.81-20.2a20.57,20.57,0,0,1-1.4-3.87,6.86,6.86,0,0,1-.24-1.14l-.24-.13v-1l-.37-1.3.26-.13c0-.48-.05-1-.05-1.45a20.2,20.2,0,1,1,40.39,0q0,.59,0,1.17l.19,0-.24,1.23.16.38-.38.71a19.19,19.19,0,0,1-1,3.78,20.64,20.64,0,0,1-1,2.32c-2.19,4.42-6.85,11.45-16.49,19.55ZM193,165.14c.06.28.1.54.13.78a4.93,4.93,0,0,0,.13.65l0,.12a16.78,16.78,0,0,0,1.16,3.18l0,.11c2.39,5.76,6.09,10.31,14.35,17.54C217,180.38,221,174.32,223,170.41a17.17,17.17,0,0,0,.87-1.93,15.87,15.87,0,0,0,.78-2.83l-.18-.42.33-.54a17.15,17.15,0,0,0,.12-2,16,16,0,1,0-32.09,0c0,.45,0,.9.05,1.34l.15.09Zm32-.86v0Z"></path>
      <path d="M208.82,170.74a8.36,8.36,0,1,1,8.37-8.36A8.37,8.37,0,0,1,208.82,170.74Zm0-12.57a4.21,4.21,0,1,0,4.21,4.21A4.22,4.22,0,0,0,208.82,158.17Z"></path>
      <rect x="12.79" y="357.85" width="170.85" height="3.72"></rect>
      <path d="M274.1,96.82a7.42,7.42,0,0,1-1.22,4.22h0l-6.48,9.78h-4.69l4.63-6.78a7.37,7.37,0,0,1-5.27-2.07,7.5,7.5,0,0,1,.06-10.35,8.35,8.35,0,0,1,10.87,0A6.9,6.9,0,0,1,274.1,96.82Zm-11,0a3.16,3.16,0,0,0,1,2.46,3.45,3.45,0,0,0,2.45.93,3.5,3.5,0,0,0,2.5-.93,3.22,3.22,0,0,0,1-2.46,3.18,3.18,0,0,0-1-2.45,3.53,3.53,0,0,0-2.5-.91,3.48,3.48,0,0,0-2.45.92A3.16,3.16,0,0,0,263.1,96.82Z"></path>
      <path d="M289.41,100a5.51,5.51,0,0,1,2.88,5,5.6,5.6,0,0,1-2,4.55,9.81,9.81,0,0,1-10.92,0,5.61,5.61,0,0,1-2-4.55,5.52,5.52,0,0,1,2.85-5,5.06,5.06,0,0,1-2.17-4.31A5.5,5.5,0,0,1,280,91.2a7.35,7.35,0,0,1,4.83-1.6,7.25,7.25,0,0,1,4.81,1.6,5.52,5.52,0,0,1,1.94,4.49A5,5,0,0,1,289.41,100Zm-7,6.61a4.33,4.33,0,0,0,4.9,0,2.84,2.84,0,0,0,0-4.22,4.33,4.33,0,0,0-4.9,0,2.84,2.84,0,0,0,0,4.22Zm4.38-12.5a3.19,3.19,0,0,0-3.86,0,2.51,2.51,0,0,0,0,3.58,3.11,3.11,0,0,0,3.86,0,2.53,2.53,0,0,0,0-3.58Z"></path>
      <path d="M304.21,98a5.22,5.22,0,0,1-7.15,0,4.92,4.92,0,0,1,0-7,5.22,5.22,0,0,1,7.15,0,5,5,0,0,1,0,7Zm-6.48,9.68L311.28,92.6l1.81,1-13.58,15.1Zm1.56-11.82a1.72,1.72,0,0,0,1.32.55,1.78,1.78,0,0,0,1.34-.55,1.88,1.88,0,0,0,.53-1.35,1.81,1.81,0,0,0-1.87-1.87,1.78,1.78,0,0,0-1.32.53,1.83,1.83,0,0,0-.52,1.34A1.87,1.87,0,0,0,299.29,95.85Zm15,13.9a5.19,5.19,0,0,1-7.13,0,4.95,4.95,0,0,1,0-7,5.19,5.19,0,0,1,7.13,0,4.95,4.95,0,0,1,0,7Zm-4.89-2.13a1.86,1.86,0,0,0,2.65,0,1.91,1.91,0,0,0,.52-1.34,1.86,1.86,0,0,0-.52-1.35,1.87,1.87,0,0,0-2.65,0,2,2,0,0,0,0,2.7Z"></path>
      <path d="M100.27,27.09a5.51,5.51,0,0,1,2.88,5,5.61,5.61,0,0,1-2,4.55,9.78,9.78,0,0,1-10.93,0,5.63,5.63,0,0,1-2-4.55,5.52,5.52,0,0,1,2.85-5,5,5,0,0,1-2.16-4.31,5.49,5.49,0,0,1,1.94-4.49,8.08,8.08,0,0,1,9.65,0,5.54,5.54,0,0,1,1.93,4.49A5,5,0,0,1,100.27,27.09Zm-7,6.61a4.33,4.33,0,0,0,4.9,0,2.84,2.84,0,0,0,0-4.22,4.38,4.38,0,0,0-4.9,0,2.84,2.84,0,0,0,0,4.22Zm4.38-12.49a3.15,3.15,0,0,0-3.86,0A2.23,2.23,0,0,0,93,23a2.3,2.3,0,0,0,.74,1.8,3.11,3.11,0,0,0,3.86,0,2.3,2.3,0,0,0,.75-1.8A2.23,2.23,0,0,0,97.62,21.21Z"></path>
      <path d="M115.1,38.33a7.22,7.22,0,0,1-6.11-3,12.83,12.83,0,0,1-2.21-7.86A12.83,12.83,0,0,1,109,19.65a7.8,7.8,0,0,1,12.23,0,12.83,12.83,0,0,1,2.2,7.86,12.83,12.83,0,0,1-2.2,7.86A7.2,7.2,0,0,1,115.1,38.33ZM112,32.58a3.73,3.73,0,0,0,6.31,0,9.59,9.59,0,0,0,1.09-5.05,9.64,9.64,0,0,0-1.09-5.08,3.71,3.71,0,0,0-6.31,0,9.85,9.85,0,0,0-1.07,5.08A9.81,9.81,0,0,0,112,32.58Z"></path>
      <path d="M135.4,25.09a5.21,5.21,0,0,1-7.15,0,4.91,4.91,0,0,1,0-6.95,5.21,5.21,0,0,1,7.15,0,5,5,0,0,1,0,7Zm-6.48,9.67,13.55-15.07,1.82,1L130.7,35.8ZM130.48,23a1.77,1.77,0,0,0,1.32.55,1.82,1.82,0,0,0,1.34-.55,1.86,1.86,0,0,0,.53-1.36,1.78,1.78,0,0,0-.53-1.33,1.81,1.81,0,0,0-1.34-.54,1.76,1.76,0,0,0-1.32.54,1.81,1.81,0,0,0-.52,1.33A1.9,1.9,0,0,0,130.48,23Zm15,13.89a5.16,5.16,0,0,1-7.13,0,4.94,4.94,0,0,1,0-7,5.16,5.16,0,0,1,7.13,0,4.94,4.94,0,0,1,0,7Zm-4.89-2.12a1.77,1.77,0,0,0,1.33.54,1.71,1.71,0,0,0,1.32-.56,2,2,0,0,0,0-2.69,1.87,1.87,0,0,0-2.65,0,2.06,2.06,0,0,0,0,2.71Z"></path>
      <path d="M395.6,271.27a38.79,38.79,0,0,1-24.68-8.85,38.72,38.72,0,0,1-24.67,8.85v-3.72a35,35,0,0,0,23.43-9l1.24-1.11,1.25,1.11a35.1,35.1,0,0,0,47.43-51.75l-1.44-1.36,1.44-1.35a34.77,34.77,0,0,0,11.11-25.62,35.1,35.1,0,0,0-58.54-26.14l-1.25,1.11-1.24-1.11a35.09,35.09,0,0,0-45.35-1.28L322,148.17a38.79,38.79,0,0,1,48.91.36,38.82,38.82,0,0,1,52.6,56.94,38.82,38.82,0,0,1-27.92,65.8Z"></path>
      <path d="M446.05,85a7.41,7.41,0,0,1,5.06,1.8,6.31,6.31,0,0,1,2.05,5,6.23,6.23,0,0,1-2.16,5,7.93,7.93,0,0,1-5.28,1.81,8.64,8.64,0,0,1-4.47-1.13,6.45,6.45,0,0,1-2.8-3.33L442,92.09q.76,2.5,3.75,2.5a3.64,3.64,0,0,0,2.46-.76,2.89,2.89,0,0,0,0-4.12,3.38,3.38,0,0,0-2.35-.77h-6.32l.84-11.59h11.82v3.84h-8L443.9,85Z"></path>
      <path d="M455.42,77.35h13.46v3.49L461.83,98.2h-4.35l6.84-16.92h-8.9Z"></path>
      <path d="M481.18,85.35a5.22,5.22,0,0,1-7.16,0,4.93,4.93,0,0,1,0-7,5.22,5.22,0,0,1,7.16,0,5,5,0,0,1,0,7ZM474.69,95l13.58-15.1,1.82,1L476.48,96.08Zm1.56-11.84a1.74,1.74,0,0,0,1.33.55,1.78,1.78,0,0,0,1.34-.55,1.83,1.83,0,0,0,.54-1.35A1.84,1.84,0,0,0,477.58,80a1.77,1.77,0,0,0-1.33.54,1.87,1.87,0,0,0-.52,1.34A1.9,1.9,0,0,0,476.25,83.2Zm15,13.92a5.18,5.18,0,0,1-7.15,0,4.95,4.95,0,0,1,0-7,5.18,5.18,0,0,1,7.15,0,4.95,4.95,0,0,1,0,7ZM486.35,95a1.77,1.77,0,0,0,1.32.55A1.72,1.72,0,0,0,489,95a1.9,1.9,0,0,0,.52-1.34,1.86,1.86,0,0,0-.52-1.35,1.87,1.87,0,0,0-2.65,0,1.86,1.86,0,0,0-.52,1.35A1.9,1.9,0,0,0,486.35,95Z"></path>
      <path d="M493.79,260H469.36V149.13h24.43Zm-20.71-3.71h17V152.85h-17Z"></path>
      <rect x="478.54" y="167.7" width="27.7" height="3.72"></rect>
      <rect x="456.09" y="187.4" width="37.1" height="3.72"></rect>
      <rect x="470.76" y="206.63" width="22.44" height="3.72"></rect>
      <rect x="449.09" y="226.68" width="57.99" height="3.72"></rect>
      <polygon points="209.32 350.26 205.6 350.26 205.6 292.66 233.5 292.66 233.5 328.66 229.78 328.66 229.78 296.38 209.32 296.38 209.32 350.26"></polygon>
      <rect x="374.67" y="37.08" width="58.6" height="3.72"></rect>
    </g>
  </g>
</svg>
