<?xml version="1.0" encoding="UTF-8"?>
<svg xmlns="http://www.w3.org/2000/svg" viewBox="0 0 1407.21 696.79">
  <defs>
    <style>.cls-1{fill:#a0dcef;}.cls-2,.cls-5{fill:none;stroke:#000;stroke-miterlimit:10;}.cls-2{stroke-width:5.39px;}.cls-3{fill:#95e4db;}.cls-4{fill:#bce772;}.cls-5{stroke-width:5.37px;}</style>
  </defs>
  <title>Fichier 24</title>
  <g id="Calque_2" data-name="Calque 2">
    <g id="Calque_1-2" data-name="Calque 1">
      <path class="cls-1" d="M927.69,255.52h130.06a16.73,16.73,0,0,1,16.73,16.73V433.43a0,0,0,0,1,0,0H911a0,0,0,0,1,0,0V272.25A16.73,16.73,0,0,1,927.69,255.52Z"></path>
      <rect class="cls-2" x="910.6" y="418.45" width="11.04" height="15.92"></rect>
      <rect class="cls-2" x="950.53" y="418.45" width="11.04" height="15.92"></rect>
      <rect class="cls-2" x="903.13" y="388.89" width="66.59" height="29.56"></rect>
      <polyline class="cls-2" points="979.13 402.86 979.13 418.77 893.06 418.77 893.06 402.86"></polyline>
      <line class="cls-2" x1="968.55" y1="398.13" x2="903.51" y2="398.13"></line>
      <line class="cls-2" x1="968.55" y1="407.65" x2="903.51" y2="407.65"></line>
      <path class="cls-2" d="M612,474.07c-.59-48.19.33-96.92-.27-146"></path>
      <path class="cls-2" d="M644.6,397.08c-30.15-.26-60.78,0-91.66-.12"></path>
      <path class="cls-3" d="M375.84,696.69c-40.21-.22-80.9,0-122.32-.07-40.1.65-38,1.76-37.05-44.21-.43-38.34,0-76.85-.16-115.84,1.08-12.44-2.65-25.94,1.9-38.36,5.63-10.42,19.78-5.88,31.6-7,35,.43,71,.09,107.07.06,41.74-.69,31.27.35,32.75,73.87,0,28.51-.05,56.66-.07,86.24-.24,7.66.27,15.57-.16,24.3C390.37,683.74,389.06,696.29,375.84,696.69Z"></path>
      <path class="cls-3" d="M854.5,291.62c-3.9,112.47-168.22,116.91-172.4-1.8C687.63,179.77,848.28,175.34,854.5,291.62Z"></path>
      <path class="cls-2" d="M815.18,480.37c-.39-47.21.08-94.79-.21-142.88"></path>
      <path class="cls-2" d="M899.87,287.28c-.59-48.19.33-96.92-.27-146"></path>
      <path class="cls-2" d="M865.67,355.27c.06-35.88-.17-72.11.08-108.75"></path>
      <path class="cls-2" d="M1058.17,434.76c-41-.24-82.36,0-124.17-.15"></path>
      <path class="cls-2" d="M1090,434.76c-11.85-.11-24.09.08-37-.07"></path>
      <path class="cls-4" d="M1239.84,46a16.09,16.09,0,0,0-12-.16c-25.55,10.15-58.75,65.44-74.25,97.71-5.52,10.68-10.28,22.37-15.69,34.36-2.79,9.68-11.18,21.26,3.36,31.85,9.35,5,19.5,10,26.63,19.41,15.21,15.37,22.14,38,20.43,60.69,1,7-1.94,15.58,2.54,22.77,5.5,11.74,22.11,9.84,34.65,9.84a449,449,0,0,0,98.84-8c9.26-2.9,20.5-3.42,27.14-12.25,17.26-19.87,4-68.22-7.36-98.33C1337.93,182.85,1283.35,63.63,1239.84,46Z"></path>
      <path class="cls-2" d="M1052.87,434.28c.19-70.47-.12-213.1-.12-213.1l39.4-.22c31.34,0,80.38,7.93,80.38,73l0,60.84"></path>
      <path class="cls-2" d="M1317.5,448.19c-72.48.16-144.8-.29-217.85.15"></path>
      <path class="cls-2" d="M768.26,329.84c.16-9.46-8-19.14-19-19"></path>
      <path class="cls-2" d="M768.25,315.18c-.26-13.75,11.67-27.27,27-27.05"></path>
      <path class="cls-2" d="M998.66,399.76c-.09-15.23,13.2-28.63,30.8-26.92"></path>
      <path class="cls-2" d="M998.68,335.11q-.06,31.74,0,64.65c-2-34.19-26.68-47.57-63.35-44.48"></path>
      <path class="cls-2" d="M1043.16,324.32c-22.9-.24-44.75,19.13-44.45,44.46"></path>
      <path class="cls-2" d="M998.69,399.73c-.07,11.12-.05,22.69,0,35"></path>
      <path class="cls-2" d="M1066.89,413.67c-.14-7.92,6.62-16.33,16.21-16.22"></path>
      <path class="cls-2" d="M1040.14,386.93c13.53-.3,27,11.53,26.74,26.74,0-6.69,0-13.81,0-21.6"></path>
      <path class="cls-2" d="M1093.67,368.27c-13.57-.26-27,11.5-26.76,26.75"></path>
      <path class="cls-2" d="M1066.9,413.65c0,6.64,0,13.63,0,21"></path>
      <path class="cls-2" d="M174.18,574.64c-.13-7.89,6.65-16.35,16.22-16.22"></path>
      <path class="cls-2" d="M147.45,547.9c13.52-.27,27.06,11.49,26.72,26.74,0-6.67,0-13.82,0-21.6"></path>
      <path class="cls-2" d="M201,529.23c-13.54-.16-27,11.46-26.73,26.76"></path>
      <path class="cls-2" d="M174.2,574.62c0,6.64,0,13.64,0,21"></path>
      <path class="cls-2" d="M768.2,445.77c.16-57-.1-114.4.08-172.1"></path>
      <path class="cls-2" d="M1233.83,288.73c.1-9.42-7.95-19.21-19-19"></path>
      <path class="cls-2" d="M1233.83,265.05c.36-19.11-16.32-37.49-37.13-37.1"></path>
      <path class="cls-2" d="M1233.77,274.07c3.37-36.38,34.57-25.39,91.8-27.09"></path>
      <path class="cls-2" d="M1233.77,353.76c.15-43.35,0-87,0-131.21"></path>
      <path class="cls-2" d="M951.39,210.29c-30.15-.26-60.78,0-91.66-.12"></path>
      <path class="cls-2" d="M778.55,480.29c153.16,1.17,307.58-.29,462.91.49"></path>
      <path class="cls-2" d="M625.81,517.82c81.13.42,162,.41,243.86,0"></path>
      <path class="cls-2" d="M1322.51,518.09c18.18-.11,36.86,0,56.12-.06"></path>
      <path class="cls-2" d="M1260,564.35c18.33,0,37,0,56.12,0"></path>
      <path class="cls-2" d="M802.69,564.24c48.3.4,97.09-.07,146.18.16"></path>
      <path class="cls-2" d="M468.25,610.07c32.17-.23,64.64,0,97.58-.09"></path>
      <path class="cls-2" d="M727.78,609.9c38,.27,76.25,0,115,.13"></path>
      <path class="cls-2" d="M656.46,564.3c29.36.08,59,0,89.2.08"></path>
      <path class="cls-2" d="M1144.35,518.18c48.59-.26,97.68-.12,147.07-.12"></path>
      <path class="cls-2" d="M1103.27,239.83c26.75-.32,52.07,22,51.91,51.87l-51.31.3Z"></path>
      <path class="cls-2" d="M1025.85,248.73c-21.14.06-42.71-.06-64.64.06"></path>
      <path class="cls-2" d="M1052.25,277.2c-21.14.06-97.13-.07-119.07.05"></path>
      <path class="cls-2" d="M795.34,99.43c-29.8.09-60-.05-90.62.06"></path>
      <path class="cls-2" d="M1319.52,57.42c-9.7.11-19.87-.07-30.69.06"></path>
      <path class="cls-2" d="M913.69,98.56c14.53,0,29.58,0,45.21,0"></path>
      <path class="cls-2" d="M1343.93,136.36c20.69-.2,41.79,0,63.27-.07"></path>
      <path class="cls-2" d="M923.62,55.56c31.17,0,62.61-.1,94.58,0"></path>
      <path class="cls-2" d="M1166.5,377c24.88-.13,50.18-.07,75.83,0"></path>
      <path class="cls-2" d="M1166.5,394.94q37.34.15,75.83.06"></path>
      <path class="cls-2" d="M1221.64,376.63c0,6.21,0,12.73,0,19.71"></path>
      <path class="cls-2" d="M1190.22,396c0,5.49,0,11.25,0,17.5"></path>
      <path class="cls-2" d="M776.3,177c-13.18,0-26.86,0-41.12,0"></path>
      <path class="cls-2" d="M1389.7,177c-10.5,0-21.5,0-33.14,0"></path>
      <path class="cls-2" d="M1096.53,103.34c-11.53,0-23.53-.06-36.16,0"></path>
      <path class="cls-2" d="M1078.44,130.37c0-17.66-.1-35.68,0-54.12"></path>
      <path class="cls-2" d="M1125.26,152.82c-7.83,0-16.16,0-25.12,0"></path>
      <path class="cls-2" d="M1112.71,134c0,12-.08,24.49,0,37.59"></path>
      <path class="cls-2" d="M969.24,297.17c.1,9.63,0,19.77.06,30.52"></path>
      <path class="cls-2" d="M1120.61,243.08c0,15.15,0,30.83,0,47.12"></path>
      <path class="cls-2" d="M1137.18,252.15c.07,11.23,0,24.77,0,37"></path>
      <path class="cls-2" d="M1150.29,70.34c7.48-.35,8.66,13.49-1.84,11.59C1143.12,80.56,1142.53,70.69,1150.29,70.34Z"></path>
      <path class="cls-2" d="M1066.93,2.7c7.49-.36,8.67,13.49-1.83,11.59C1059.77,12.93,1059.18,3.06,1066.93,2.7Z"></path>
      <path class="cls-2" d="M8.53,518.88c7.49-.33,8.67,13.46-1.84,11.61C1.37,529.07.77,519.27,8.53,518.88Z"></path>
      <path class="cls-2" d="M433.27,452.87c7.49-.39,8.63,13.5-1.83,11.59C426.12,463.08,425.51,453.2,433.27,452.87Z"></path>
      <path class="cls-2" d="M1338,344.74c7.47-.32,8.67,13.45-1.84,11.61C1330.87,354.94,1330.26,345.12,1338,344.74Z"></path>
      <path class="cls-2" d="M774.49,29.05c7.49-.39,8.66,13.45-1.84,11.59C767.35,39.24,766.72,29.4,774.49,29.05Z"></path>
      <path class="cls-2" d="M736.15,136.2c7.48-.33,8.66,13.45-1.84,11.6C729,146.4,728.38,136.56,736.15,136.2Z"></path>
      <path class="cls-2" d="M884.59,448.14c-50.31,0-101.12.23-152.23-.1"></path>
      <path class="cls-2" d="M581.62,448.26c-26.54-.22-53.37,0-80.73-.09"></path>
      <path class="cls-2" d="M472.71,518.57c-22.79-.15-45.88-.07-69.44,0"></path>
      <path class="cls-2" d="M274.62,468c-35-.24-70.3-.15-106.06-.36"></path>
      <path class="cls-2" d="M339.45,467.93c-12.83,0-26.11-.14-40-.28"></path>
      <path class="cls-2" d="M634,626.61c.18-7.78-6.54-16.13-16-16"></path>
      <path class="cls-2" d="M634,606.7C633,583.61,616,573.21,590.15,575.45"></path>
      <path class="cls-2" d="M634,614.29c1.91-22.56,18.62-23.88,41.41-22.72"></path>
      <path class="cls-2" d="M634.15,687.6c-.22-38.54,0-77.36-.08-116.64"></path>
      <path class="cls-2" d="M96.52,582c-.21-12.18,10.3-24.35,24.15-24.14"></path>
      <path class="cls-2" d="M56.7,542.25c20.53-.63,40.05,17.39,39.9,39.76-.32-29.82.16-60-.13-90.6"></path>
      <path class="cls-2" d="M136.41,514.38c-20.45-.27-40,17-39.85,39.86"></path>
      <path class="cls-2" d="M96.55,582c-.06,9.91,0,20.32,0,31.34"></path>
      <path class="cls-2" d="M96.51,530.88c0-19.57-14.83-40.36-38.08-37.68"></path>
      <path class="cls-2" d="M582.58,471.32c-.11-19.59,0-87.65,0-106.44H700.81v154"></path>
      <path class="cls-2" d="M244.35,579.3c-.11-19.58,0-44.1,0-62.89H362.58V672.93"></path>
      <path class="cls-2" d="M815.14,248.19c-.11-19.59,0-52.43,0-71.22H933.37v210.9"></path>
      <path class="cls-2" d="M1103.76,405.43h0a13.19,13.19,0,0,1,13.19,13.19v29.72a0,0,0,0,1,0,0h-26.39a0,0,0,0,1,0,0V418.62A13.19,13.19,0,0,1,1103.76,405.43Z"></path>
      <path class="cls-2" d="M1130.49,387.46h0a13.19,13.19,0,0,1,13.19,13.19v47.69a0,0,0,0,1,0,0H1117.3a0,0,0,0,1,0,0V400.65a13.19,13.19,0,0,1,13.19-13.19Z"></path>
      <rect class="cls-2" x="1092.99" y="338.57" width="30.72" height="15.92"></rect>
      <polyline class="cls-2" points="1100.25 404.71 1100.25 355.03 1117.27 355.03 1117.27 400.65"></polyline>
      <rect class="cls-2" x="1255.13" y="338.57" width="30.72" height="15.92"></rect>
      <polyline class="cls-2" points="1262.39 448.67 1262.39 355.03 1279.41 355.03 1279.41 447.96"></polyline>
      <line class="cls-2" x1="1262.39" y1="355.03" x2="1117.27" y2="355.03"></line>
      <rect class="cls-2" x="953.92" y="296.13" width="30.7" height="30.7"></rect>
      <path class="cls-1" d="M1039.54,169.11a45,45,0,0,0,.43-6.18c0-23.79-18.81-43.07-42-43.07s-42,19.28-42,43.07a43.62,43.62,0,0,0,.42,6.08c-.14.07.13.07,0,.15.42,1.48.43,3,.87,4.39a43.52,43.52,0,0,0,3,8.38c5.29,12.85,13.09,21.72,28.5,35.53a13.83,13.83,0,0,0,18.62-.18c13.67-12.61,22.55-23.6,27.67-34.06a42.49,42.49,0,0,0,2.21-5,45.74,45.74,0,0,0,2.31-8.87C1039.4,169.35,1039.69,169.15,1039.54,169.11Z"></path>
      <path class="cls-5" d="M1024,166a26.84,26.84,0,0,0,.27-3.82,26.19,26.19,0,1,0-52.38,0,27.36,27.36,0,0,0,.26,3.75c-.09,0,.09.05,0,.09.26.92.27,1.85.54,2.72a27.72,27.72,0,0,0,1.88,5.17c3.9,9.38,10,16.54,23.51,28.15,11.91-10,19.23-19.52,23.1-27.35a27.36,27.36,0,0,0,1.38-3.07,28.19,28.19,0,0,0,1.44-5.47C1023.86,166.12,1024,166,1024,166Z"></path>
      <circle class="cls-5" cx="998.03" cy="161.75" r="9.08"></circle>
      <path class="cls-3" d="M899.73,69.48a45,45,0,0,0,.43-6.18c0-23.79-18.82-43.07-42-43.07s-42,19.28-42,43.07a45.21,45.21,0,0,0,.41,6.08c-.14.07.14.08,0,.15.42,1.48.43,3,.88,4.39a42.63,42.63,0,0,0,3,8.38c5.29,12.85,13.09,21.72,28.49,35.53a13.84,13.84,0,0,0,18.63-.18C881.2,105,890.09,94.05,895.21,83.6a45.21,45.21,0,0,0,2.21-5,47.23,47.23,0,0,0,2.31-8.87C899.58,69.72,899.87,69.52,899.73,69.48Z"></path>
      <path class="cls-5" d="M884.14,66.35a28.28,28.28,0,0,0,.26-3.82,26.19,26.19,0,1,0-52.37,0,27.25,27.25,0,0,0,.26,3.75c-.09,0,.08,0,0,.1.26.91.27,1.84.54,2.71a26.14,26.14,0,0,0,1.88,5.17c3.9,9.38,10,16.54,23.51,28.16,11.9-10,19.23-19.53,23.1-27.36A28,28,0,0,0,882.7,72a29.21,29.21,0,0,0,1.44-5.48C884.05,66.5,884.23,66.37,884.14,66.35Z"></path>
      <circle class="cls-5" cx="858.22" cy="62.13" r="9.08"></circle>
      <path class="cls-4" d="M585.77,524.09a43.58,43.58,0,0,0,.43-6.19c0-23.78-18.81-43.07-42-43.07s-42,19.29-42,43.07a45,45,0,0,0,.42,6.08c-.14.07.14.08,0,.15.42,1.49.43,3,.87,4.4a43.79,43.79,0,0,0,3,8.38c5.29,12.84,13.09,21.72,28.49,35.53a13.85,13.85,0,0,0,18.62-.18c13.67-12.61,22.56-23.6,27.68-34.06a43.19,43.19,0,0,0,2.2-5,45.82,45.82,0,0,0,2.31-8.88C585.63,524.33,585.92,524.12,585.77,524.09Z"></path>
      <path class="cls-5" d="M570.18,521a26.22,26.22,0,1,0-52.1-3.82,27.4,27.4,0,0,0,.25,3.76c-.08,0,.09.05,0,.09.26.92.27,1.85.55,2.71a26.23,26.23,0,0,0,1.88,5.18c3.9,9.38,10,16.53,23.5,28.15,11.91-10,19.24-19.52,23.11-27.35a25.61,25.61,0,0,0,1.37-3.07,28.27,28.27,0,0,0,1.44-5.48C570.09,521.1,570.27,521,570.18,521Z"></path>
      <circle class="cls-5" cx="544.26" cy="516.73" r="9.08"></circle>
    </g>
  </g>
</svg>
